<?xml version="1.0" encoding="UTF-8"?>
<svg width="32px" height="22px" viewBox="0 0 32 22" version="1.1" xmlns="http://www.w3.org/2000/svg" xmlns:xlink="http://www.w3.org/1999/xlink">
    <!-- Generator: Sketch 51.2 (57519) - http://www.bohemiancoding.com/sketch -->
    <title>Cup_outline</title>
    <desc>Created with Sketch.</desc>
    <defs></defs>
    <g id="Page-1" stroke="none" stroke-width="1" fill="none" fill-rule="evenodd" stroke-linecap="round" stroke-linejoin="round">
        <g id="Artboard" transform="translate(-360.000000, -99.000000)" stroke="#201009" stroke-width="0.5">
            <g id="CoffeeIcons" transform="translate(103.000000, 92.000000)">
                <g id="outline" transform="translate(257.000000, 0.000000)">
                    <g id="Cup_" transform="translate(1.000000, 7.000000)">
                        <g id="Outlined_-_Usual_Cup_3_">
                            <path d="M22,18.3 C24.1,15.5 26.1,6.7 25.6,2.4 C25.5,1.6 24.9,0.9 24.1,0.7 C22,0.1 6.2,0.1 4.1,0.7 C3.3,0.9 2.7,1.6 2.6,2.4 C2.1,6.7 4.1,15.5 6.2,18.3 C7.8,20.6 20.4,20.5 22,18.3 Z" id="Shape"></path>
                            <path d="M25.6037419,5.72784455 C27.5037419,6.02784455 29.0037419,7.82784455 28.8037419,9.82784455 C28.7037419,10.6278445 28.3037419,11.3278445 27.8037419,11.9278445 C26.5037419,13.1278445 28.0037419,14.9278445 30.0037419,11.9278445 C30.3037419,11.3278445 30.5037419,10.7278445 30.6037419,10.0278445 C31.0037419,7.02784455 28.7037419,4.22784455 25.7037419,3.92784455" id="Shape"></path>
                            <path d="M23.1,18.5 C26.6,18.7 29.2,18.9 29.2,19.7 C29.2,20.8 22.7,20.9 14.6,20.9 C6.5,20.9 0,21 0,19.7 C0,18.9 2.2,18.9 5.2,18.7" id="Shape"></path>
                            <g id="Outlined_-_Usual_Cup_2_" transform="translate(5.000000, 2.000000)">
                                <path d="M0.5,5.8 C0.7,8.8 1.2,12.1 2,14.5" id="Shape"></path>
                                <path d="M0.5,0.3 C0.4,1.2 0.4,2.4 0.4,3.8" id="Shape"></path>
                            </g>
                        </g>
                    </g>
                </g>
            </g>
        </g>
    </g>
</svg>